<?xml version="1.0" standalone="no"?>
<!DOCTYPE svg PUBLIC "-//W3C//DTD SVG 20010904//EN"
 "http://www.w3.org/TR/2001/REC-SVG-20010904/DTD/svg10.dtd">
<svg version="1.0" xmlns="http://www.w3.org/2000/svg"
 width="900.000000pt" height="520.000000pt" viewBox="0 0 900.000000 520.000000"
 preserveAspectRatio="xMidYMid meet">
<metadata>
Created by potrace 1.15, written by Peter Selinger 2001-2017
</metadata>
<g transform="translate(0.000000,520.000000) scale(0.100000,-0.100000)"
fill="#000000" stroke="none">
<path d="M4905 4323 c-338 -47 -626 -303 -732 -650 -23 -78 -26 -104 -27 -238
0 -124 4 -164 22 -230 86 -313 315 -546 629 -642 79 -24 103 -27 243 -27 140
0 164 3 243 27 400 123 657 461 657 867 0 430 -300 797 -722 884 -71 15 -237
19 -313 9z m202 -174 c68 -25 116 -97 116 -174 0 -80 -40 -138 -115 -170 -76
-31 -163 -7 -214 61 -26 33 -29 46 -29 109 0 63 3 76 29 109 48 64 141 92 213
65z m-447 -284 c53 -27 84 -80 88 -149 4 -73 -15 -115 -69 -159 -87 -69 -222
-37 -275 65 -18 35 -20 103 -5 150 32 97 163 144 261 93z m925 6 c142 -64 149
-264 12 -330 -162 -79 -325 84 -246 246 43 88 145 125 234 84z m-469 -362 c32
-30 41 -82 21 -125 -43 -89 -170 -79 -198 16 -32 105 97 184 177 109z m-468
-183 c31 -16 74 -61 91 -93 18 -35 13 -119 -9 -163 -50 -99 -183 -125 -276
-55 -96 73 -84 237 22 301 45 28 129 32 172 10z m952 -6 c101 -52 128 -192 54
-280 -78 -92 -225 -84 -294 17 -21 30 -25 49 -25 104 0 60 3 71 31 106 17 21
46 46 65 55 46 24 120 23 169 -2z m-493 -261 c68 -25 116 -97 116 -174 0 -187
-248 -253 -340 -90 -26 46 -30 119 -9 168 35 83 146 129 233 96z"/>
<path d="M3175 3966 c-253 -59 -449 -229 -535 -463 -177 -485 200 -996 715
-970 483 25 806 499 650 956 -75 221 -250 389 -480 461 -90 28 -263 36 -350
16z m226 -149 c123 -82 66 -269 -81 -269 -80 0 -138 53 -147 133 -8 87 58 159
147 159 32 0 58 -7 81 -23z m-391 -212 c118 -61 97 -238 -32 -273 -129 -35
-236 113 -163 225 38 57 131 81 195 48z m760 0 c154 -79 60 -318 -108 -273
-126 34 -150 201 -39 268 38 24 106 26 147 5z m-392 -285 c29 -27 37 -64 22
-101 -15 -35 -37 -49 -80 -49 -43 0 -65 14 -80 49 -25 61 15 121 80 121 23 0
44 -8 58 -20z m-359 -159 c122 -85 69 -271 -76 -271 -105 0 -174 90 -145 189
28 92 145 135 221 82z m733 13 c61 -14 109 -103 93 -173 -26 -117 -188 -151
-264 -55 -44 56 -36 146 16 196 29 27 86 49 113 42 8 -1 27 -6 42 -10z m-353
-233 c122 -85 69 -271 -76 -271 -105 0 -174 90 -145 189 28 93 145 136 221 82z"/>
<path d="M4021 2729 c-311 -344 -818 -412 -1213 -163 l-38 24 0 -742 0 -743
23 -40 c12 -21 42 -53 65 -70 l44 -30 1299 -3 c1285 -2 1300 -2 1339 18 50 25
77 54 101 105 18 38 19 80 19 777 l0 737 -70 -40 c-259 -150 -618 -184 -906
-85 -155 53 -329 161 -439 275 -48 49 -51 51 -105 51 l-55 0 -64 -71z m360
-645 c216 -107 388 -199 383 -204 -13 -11 -776 -411 -779 -408 -2 2 -6 184
-10 406 -6 297 -5 402 4 402 6 0 187 -88 402 -196z"/>
<path d="M6080 2451 l-305 -156 -3 -412 -2 -411 252 -132 c139 -73 281 -148
316 -167 l62 -35 0 736 c0 405 -3 736 -7 735 -5 0 -145 -71 -313 -158z"/>
</g>
</svg>
